<svg xmlns="http://www.w3.org/2000/svg" viewBox="0 0 36.42 36.42"><defs><style>.cls-1{fill:#fff;fill-rule:evenodd;}</style></defs><g id="OBJECTS"><g id="Logo_White" data-name="Logo White"><path id="Makr" class="cls-1" d="M18.22,8.71a9.75,9.75,0,0,0-3.06,19c.48.1.66-.21.66-.46s0-1,0-1.81c-2.69.58-3.25-1.16-3.25-1.16a2.48,2.48,0,0,0-1.07-1.42c-.88-.6.06-.6.06-.6a2,2,0,0,1,1.49,1,2,2,0,0,0,2.82.81,2.09,2.09,0,0,1,.61-1.31c-2.15-.22-4.41-1.06-4.41-4.8a3.83,3.83,0,0,1,1-2.62,3.49,3.49,0,0,1,.09-2.58s.82-.26,2.66,1a9.4,9.4,0,0,1,2.42-.32,9.29,9.29,0,0,1,2.42.32c1.84-1.26,2.65-1,2.65-1a3.52,3.52,0,0,1,.1,2.58,3.73,3.73,0,0,1,1,2.62c0,3.74-2.25,4.56-4.42,4.8a2.3,2.3,0,0,1,.66,1.81c0,1.31,0,2.35,0,2.68s.18.56.66.46a9.75,9.75,0,0,0-3-19Z"/></g></g></svg>