<svg xmlns="http://www.w3.org/2000/svg" viewBox="0 0 36.42 36.42"><defs><style>.cls-1{fill:#fff;}</style></defs><g id="OBJECTS"><path class="cls-1" d="M24.5,20.89s-.77-.92-1.62-.29c-.63.48-1.77,1.53-2,1.78a22.66,22.66,0,0,1-3-1.93,15.58,15.58,0,0,1-3.36-4L14,15.6c.15-.16,1.32-1.41,1.82-2.08.63-.85-.29-1.62-.29-1.62S13,9.32,12.38,8.81a1.26,1.26,0,0,0-1.27-.23c-1.23.8-2.52,1.49-2.59,4.84,0,3.13,2.37,6.36,4.94,8.86C16,25.1,19.57,27.93,23,27.92s4-1.35,4.83-2.59a1.27,1.27,0,0,0-.22-1.27c-.52-.59-3.1-3.17-3.1-3.17Zm0,0"/></g></svg>