<svg xmlns="http://www.w3.org/2000/svg" viewBox="0 0 36.42 36.42"><defs><style>.cls-1{fill:#fff;}</style></defs><g id="OBJECTS"><path class="cls-1" d="M21.84,24.12c-.55.55-1.07,1-1.52,1.44,3.16.32,5,1.31,5,1.9s-2.71,2-7.14,2-7.14-1.3-7.14-2,1.79-1.54,4.85-1.88c-.45-.4-1-.88-1.51-1.43-2.8.52-5,1.64-5,3.31,0,2.39,4.41,3.64,8.77,3.64S27,29.85,27,27.46C27,25.75,24.72,24.62,21.84,24.12Z"/><path class="cls-1" d="M17.64,23.83h0l.46.39c2.07-1.76,7.27-6.7,7.27-11.57a7.37,7.37,0,0,0-7.22-7.34h-.1a7.38,7.38,0,0,0-7.23,7.34C10.83,17.2,15.36,21.79,17.64,23.83ZM14.37,11.92a3.81,3.81,0,1,1,3.81,3.81A3.8,3.8,0,0,1,14.37,11.92Z"/></g></svg>