<svg xmlns="http://www.w3.org/2000/svg" version="1.1" xmlns:xlink="http://www.w3.org/1999/xlink" xmlns:svgjs="http://svgjs.dev/svgjs" width="2000" height="1250" viewBox="0 0 2000 1250"><g transform="matrix(1,0,0,1,0,0)"><svg viewBox="0 0 512 320" data-background-color="#ffffff" preserveAspectRatio="xMidYMid meet" height="1250" width="2000" xmlns="http://www.w3.org/2000/svg" xmlns:xlink="http://www.w3.org/1999/xlink"><g id="tight-bounds" transform="matrix(1,0,0,1,0,0)"><svg viewBox="0 0 512 320" height="320" width="512"><g><svg></svg></g><g><svg viewBox="0 0 512 320" height="320" width="512"><g><path d="M96 160c0-88.366 71.634-160 160-160 88.366 0 160 71.634 160 160 0 88.366-71.634 160-160 160-88.366 0-160-71.634-160-160z" fill="#a437db" fill-rule="nonzero" stroke="none" stroke-width="1" stroke-linecap="butt" stroke-linejoin="miter" stroke-miterlimit="10" stroke-dasharray="" stroke-dashoffset="0" font-family="none" font-weight="none" font-size="none" text-anchor="none" style="mix-blend-mode: normal" data-fill-palette-color="tertiary"></path></g><g transform="matrix(1,0,0,1,153.60000000000002,113.05473951715375)"><svg viewBox="0 0 204.79999999999998 93.8905209656925" height="93.8905209656925" width="204.79999999999998"><g><svg viewBox="0 0 204.79999999999998 93.8905209656925" height="93.8905209656925" width="204.79999999999998"><g><svg viewBox="0 0 204.79999999999998 93.8905209656925" height="93.8905209656925" width="204.79999999999998"><g id="textblocktransform"><svg viewBox="0 0 204.79999999999998 93.8905209656925" height="93.8905209656925" width="204.79999999999998" id="textblock"><g><svg viewBox="0 0 204.79999999999998 93.8905209656925" height="93.8905209656925" width="204.79999999999998"><g transform="matrix(1,0,0,1,0,0)"><svg width="204.79999999999998" viewBox="2.6999999999999993 -32.74999999999999 196.75 78.5" height="93.8905209656925" data-palette-color="#ffffff"><svg></svg><svg></svg><g class="wordmark-text-0" data-fill-palette-color="quaternary" id="text-0"><path d="M12.85-2.75v0c2.233 0 3.927-0.51 5.08-1.53 1.147-1.013 1.72-2.32 1.72-3.92v0c0-1.367-0.443-2.5-1.33-3.4-0.88-0.9-2.27-1.617-4.17-2.15v0l-4.35-1.3c-1.4-0.433-2.617-0.993-3.65-1.68-1.033-0.68-1.823-1.53-2.37-2.55-0.553-1.013-0.83-2.203-0.83-3.57v0c0-2.567 0.933-4.577 2.8-6.03 1.867-1.447 4.35-2.17 7.45-2.17v0c1.8 0 3.41 0.19 4.83 0.57 1.413 0.387 2.53 0.88 3.35 1.48 0.813 0.6 1.22 1.233 1.22 1.9v0c0 0.433-0.117 0.823-0.35 1.17-0.233 0.353-0.533 0.63-0.9 0.83v0c-0.833-0.667-1.957-1.25-3.37-1.75-1.42-0.5-2.963-0.75-4.63-0.75v0c-1.933 0-3.467 0.423-4.6 1.27-1.133 0.853-1.7 2.013-1.7 3.48v0c0 1.167 0.41 2.117 1.23 2.85 0.813 0.733 2.137 1.367 3.97 1.9v0l3.05 0.9c2.633 0.733 4.71 1.8 6.23 3.2 1.513 1.4 2.27 3.333 2.27 5.8v0c0 2.633-0.957 4.767-2.87 6.4-1.92 1.633-4.613 2.45-8.08 2.45v0c-2.033 0-3.807-0.227-5.32-0.68-1.52-0.447-2.703-1.013-3.55-1.7-0.853-0.68-1.28-1.353-1.28-2.02v0c0-0.567 0.177-1.043 0.53-1.43 0.347-0.38 0.753-0.653 1.22-0.82v0c0.767 0.733 1.85 1.457 3.25 2.17 1.4 0.72 3.117 1.08 5.15 1.08zM39.75 0.65v0c-1.433 0-2.773-0.207-4.02-0.62-1.253-0.42-2.163-0.88-2.73-1.38v0-3.7c0.667 0.633 1.51 1.19 2.53 1.67 1.013 0.487 2.237 0.73 3.67 0.73v0c2.333 0 4.21-0.71 5.63-2.13 1.413-1.413 2.12-3.687 2.12-6.82v0c0-2.2-0.357-3.94-1.07-5.22-0.72-1.287-1.67-2.213-2.85-2.78-1.187-0.567-2.463-0.85-3.83-0.85v0c-1.2 0-2.217 0.15-3.05 0.45-0.833 0.3-1.583 0.633-2.25 1v0 16.6h-4v-16.5c0-0.667 0.117-1.2 0.35-1.6 0.233-0.4 0.717-0.817 1.45-1.25v0c0.9-0.5 1.977-0.96 3.23-1.38 1.247-0.413 2.67-0.62 4.27-0.62v0c2.2 0 4.193 0.423 5.98 1.27 1.78 0.853 3.197 2.17 4.25 3.95 1.047 1.787 1.57 4.097 1.57 6.93v0c0 2.733-0.473 5.007-1.42 6.82-0.953 1.82-2.28 3.18-3.98 4.08-1.7 0.9-3.65 1.35-5.85 1.35zM32.05 9.35v0c-0.7 0-1.233-0.15-1.6-0.45-0.367-0.3-0.55-0.767-0.55-1.4v0-11.35l4 0.1v12.75c-0.167 0.067-0.417 0.14-0.75 0.22-0.333 0.087-0.7 0.13-1.1 0.13zM65.45 0.7v0c-3.133 0-5.557-0.617-7.27-1.85-1.72-1.233-2.58-3.017-2.58-5.35v0c0-2.167 0.727-3.827 2.18-4.98 1.447-1.147 3.453-1.837 6.02-2.07v0l7.1-0.7v-1.4c0-1.667-0.5-2.883-1.5-3.65-1-0.767-2.35-1.15-4.05-1.15v0c-1.367 0-2.673 0.2-3.92 0.6-1.253 0.4-2.363 0.85-3.33 1.35v0c-0.267-0.233-0.507-0.51-0.72-0.83-0.22-0.313-0.33-0.637-0.33-0.97v0c0-0.867 0.483-1.533 1.45-2v0c0.9-0.467 1.943-0.827 3.13-1.08 1.18-0.247 2.437-0.37 3.77-0.37v0c2.9 0 5.2 0.65 6.9 1.95 1.7 1.3 2.55 3.35 2.55 6.15v0 11.85c0 0.733-0.14 1.29-0.42 1.67-0.287 0.387-0.713 0.747-1.28 1.08v0c-0.8 0.433-1.867 0.833-3.2 1.2-1.333 0.367-2.833 0.55-4.5 0.55zM65.45-2.6v0c1.4 0 2.56-0.143 3.48-0.43 0.913-0.28 1.57-0.553 1.97-0.82v0-7.25l-6.2 0.65c-1.733 0.133-3.017 0.517-3.85 1.15-0.833 0.633-1.25 1.55-1.25 2.75v0c0 1.233 0.493 2.2 1.48 2.9 0.98 0.7 2.437 1.05 4.37 1.05zM86.15-18.8v0 7.9h-4v-7.6c0-0.767 0.143-1.377 0.43-1.83 0.28-0.447 0.753-0.887 1.42-1.32v0c0.867-0.567 2.05-1.06 3.55-1.48 1.5-0.413 3.167-0.62 5-0.62v0c2.667 0 4 0.667 4 2v0c0 0.333-0.05 0.64-0.15 0.92-0.1 0.287-0.233 0.53-0.4 0.73v0c-0.333-0.067-0.767-0.133-1.3-0.2-0.533-0.067-1.067-0.1-1.6-0.1v0c-1.533 0-2.883 0.157-4.05 0.47-1.167 0.32-2.133 0.697-2.9 1.13zM82.15-1.55v-11.65l4 0.6v12.5c-0.167 0.067-0.417 0.143-0.75 0.23-0.333 0.08-0.7 0.12-1.1 0.12v0c-0.7 0-1.233-0.143-1.6-0.43-0.367-0.28-0.55-0.737-0.55-1.37zM117.2-19.15l-9.8 8.6-2.5-1.95 11.4-11.05c0.8 0.033 1.423 0.223 1.87 0.57 0.453 0.353 0.68 0.813 0.68 1.38v0c0 0.467-0.143 0.883-0.43 1.25-0.28 0.367-0.687 0.767-1.22 1.2zM115.45-1.15l-10.65-10.7 2.8-1.65 12.7 11.4c-0.067 0.733-0.29 1.317-0.67 1.75-0.387 0.433-0.897 0.65-1.53 0.65v0c-0.5 0-0.96-0.133-1.38-0.4-0.413-0.267-0.837-0.617-1.27-1.05zM101.35-1.55v-11.85l4 0.6v12.7c-0.167 0.067-0.417 0.143-0.75 0.23-0.333 0.08-0.7 0.12-1.1 0.12v0c-0.7 0-1.233-0.143-1.6-0.43-0.367-0.28-0.55-0.737-0.55-1.37zM105.35-30.95v20.1l-4-0.6v-20.95c0.167-0.067 0.427-0.143 0.78-0.23 0.347-0.08 0.72-0.12 1.12-0.12v0c0.7 0 1.227 0.14 1.58 0.42 0.347 0.287 0.52 0.747 0.52 1.38z" fill="#ffffff" fill-rule="nonzero" stroke="none" stroke-width="1" stroke-linecap="butt" stroke-linejoin="miter" stroke-miterlimit="10" stroke-dasharray="" stroke-dashoffset="0" font-family="none" font-weight="none" font-size="none" text-anchor="none" style="mix-blend-mode: normal" data-fill-palette-color="quaternary" opacity="1"></path><path d="M12.85 42.35v0c2.233 0 3.927-0.51 5.08-1.53 1.147-1.013 1.72-2.32 1.72-3.92v0c0-1.367-0.443-2.5-1.33-3.4-0.88-0.9-2.27-1.617-4.17-2.15v0l-4.35-1.3c-1.4-0.433-2.617-0.993-3.65-1.68-1.033-0.68-1.823-1.53-2.37-2.55-0.553-1.013-0.83-2.203-0.83-3.57v0c0-2.567 0.933-4.577 2.8-6.03 1.867-1.447 4.35-2.17 7.45-2.17v0c1.8 0 3.41 0.19 4.83 0.57 1.413 0.387 2.53 0.88 3.35 1.48 0.813 0.6 1.22 1.233 1.22 1.9v0c0 0.433-0.117 0.823-0.35 1.17-0.233 0.353-0.533 0.63-0.9 0.83v0c-0.833-0.667-1.957-1.25-3.37-1.75-1.42-0.5-2.963-0.75-4.63-0.75v0c-1.933 0-3.467 0.423-4.6 1.27-1.133 0.853-1.7 2.013-1.7 3.48v0c0 1.167 0.41 2.117 1.23 2.85 0.813 0.733 2.137 1.367 3.97 1.9v0l3.05 0.9c2.633 0.733 4.71 1.8 6.23 3.2 1.513 1.4 2.27 3.333 2.27 5.8v0c0 2.633-0.957 4.767-2.87 6.4-1.92 1.633-4.613 2.45-8.08 2.45v0c-2.033 0-3.807-0.227-5.32-0.68-1.52-0.447-2.703-1.013-3.55-1.7-0.853-0.68-1.28-1.353-1.28-2.02v0c0-0.567 0.177-1.043 0.53-1.43 0.347-0.38 0.753-0.653 1.22-0.82v0c0.767 0.733 1.85 1.457 3.25 2.17 1.4 0.72 3.117 1.08 5.15 1.08zM51.35 33.55v0c0 2.467-0.467 4.617-1.4 6.45-0.933 1.833-2.25 3.25-3.95 4.25-1.7 1-3.7 1.5-6 1.5v0c-2.3 0-4.307-0.5-6.02-1.5-1.72-1-3.047-2.417-3.98-4.25-0.933-1.833-1.4-3.983-1.4-6.45v0c0-2.5 0.477-4.66 1.43-6.48 0.947-1.813 2.28-3.22 4-4.22 1.713-1 3.703-1.5 5.97-1.5v0c2.267 0 4.25 0.5 5.95 1.5 1.7 1 3.027 2.407 3.98 4.22 0.947 1.82 1.42 3.98 1.42 6.48zM40 24.65v0c-2.233 0-4.007 0.793-5.32 2.38-1.32 1.58-1.98 3.753-1.98 6.52v0c0 2.8 0.643 4.983 1.93 6.55 1.28 1.567 3.07 2.35 5.37 2.35v0c2.267 0 4.043-0.793 5.33-2.38 1.28-1.58 1.92-3.753 1.92-6.52v0c0-2.767-0.64-4.94-1.92-6.52-1.287-1.587-3.063-2.38-5.33-2.38zM57.95 43.55v-11.65l4 0.6v12.5c-0.167 0.067-0.417 0.143-0.75 0.23-0.333 0.08-0.7 0.12-1.1 0.12v0c-0.7 0-1.233-0.143-1.6-0.43-0.367-0.28-0.55-0.737-0.55-1.37zM61.95 14.15v20.25l-4-0.55v-21.15c0.167-0.067 0.427-0.143 0.78-0.23 0.347-0.08 0.703-0.12 1.07-0.12v0c0.733 0 1.277 0.14 1.63 0.42 0.347 0.287 0.52 0.747 0.52 1.38zM69.85 36.65v0-4.55h4v4.35c0 2.133 0.567 3.667 1.7 4.6 1.133 0.933 2.7 1.4 4.7 1.4v0c1.333 0 2.467-0.143 3.4-0.43 0.933-0.28 1.667-0.57 2.2-0.87v0-9.05h4v8.9c0 0.7-0.09 1.257-0.27 1.67-0.187 0.42-0.63 0.83-1.33 1.23v0c-0.733 0.433-1.783 0.85-3.15 1.25-1.367 0.4-3 0.6-4.9 0.6v0c-2.2 0-4.073-0.327-5.62-0.98-1.553-0.647-2.73-1.647-3.53-3-0.8-1.347-1.2-3.053-1.2-5.12zM89.85 23.6v11.1h-4v-12.6c0.167-0.067 0.427-0.143 0.78-0.23 0.347-0.08 0.703-0.12 1.07-0.12v0c0.733 0 1.277 0.14 1.63 0.42 0.347 0.287 0.52 0.763 0.52 1.43zM73.85 23.6v11.1h-4v-12.6c0.167-0.067 0.427-0.143 0.78-0.23 0.347-0.08 0.72-0.12 1.12-0.12v0c0.7 0 1.227 0.14 1.58 0.42 0.347 0.287 0.52 0.763 0.52 1.43zM97.4 39.05v-7.15h4v6.9c0 1.333 0.383 2.273 1.15 2.82 0.767 0.553 1.817 0.83 3.15 0.83v0c0.567 0 1.2-0.1 1.9-0.3 0.7-0.2 1.283-0.433 1.75-0.7v0c0.2 0.2 0.383 0.45 0.55 0.75 0.167 0.3 0.25 0.65 0.25 1.05v0c0 0.733-0.433 1.333-1.3 1.8-0.867 0.467-2.067 0.7-3.6 0.7v0c-2.333 0-4.223-0.517-5.67-1.55-1.453-1.033-2.18-2.75-2.18-5.15zM108.55 25.8h-9.1v-3.3h10.15c0.1 0.133 0.2 0.35 0.3 0.65 0.1 0.3 0.15 0.617 0.15 0.95v0c0 0.533-0.133 0.95-0.4 1.25-0.267 0.3-0.633 0.45-1.1 0.45zM101.4 16.75v16.65h-4v-18.1c0.167-0.067 0.427-0.143 0.78-0.23 0.347-0.08 0.72-0.12 1.12-0.12v0c0.7 0 1.227 0.14 1.58 0.42 0.347 0.287 0.52 0.747 0.52 1.38zM115.6 14.7v0c0-0.7 0.25-1.293 0.75-1.78 0.5-0.48 1.117-0.72 1.85-0.72v0c0.767 0 1.383 0.24 1.85 0.72 0.467 0.487 0.7 1.08 0.7 1.78v0c0 0.7-0.233 1.29-0.7 1.77-0.467 0.487-1.083 0.73-1.85 0.73v0c-0.733 0-1.35-0.243-1.85-0.73-0.5-0.48-0.75-1.07-0.75-1.77zM116.2 43.55v-11.65h4v13.1c-0.167 0.067-0.417 0.143-0.75 0.23-0.333 0.08-0.7 0.12-1.1 0.12v0c-0.7 0-1.233-0.143-1.6-0.43-0.367-0.28-0.55-0.737-0.55-1.37zM120.2 23.6v10.25h-4v-11.75c0.167-0.067 0.427-0.143 0.78-0.23 0.347-0.08 0.72-0.12 1.12-0.12v0c0.7 0 1.227 0.14 1.58 0.42 0.347 0.287 0.52 0.763 0.52 1.43zM149.45 33.55v0c0 2.467-0.467 4.617-1.4 6.45-0.933 1.833-2.25 3.25-3.95 4.25-1.7 1-3.7 1.5-6 1.5v0c-2.3 0-4.307-0.5-6.02-1.5-1.72-1-3.047-2.417-3.98-4.25-0.933-1.833-1.4-3.983-1.4-6.45v0c0-2.5 0.477-4.66 1.43-6.48 0.947-1.813 2.28-3.22 4-4.22 1.713-1 3.703-1.5 5.97-1.5v0c2.267 0 4.25 0.5 5.95 1.5 1.7 1 3.027 2.407 3.98 4.22 0.947 1.82 1.42 3.98 1.42 6.48zM138.1 24.65v0c-2.233 0-4.007 0.793-5.32 2.38-1.32 1.58-1.98 3.753-1.98 6.52v0c0 2.8 0.643 4.983 1.93 6.55 1.28 1.567 3.07 2.35 5.37 2.35v0c2.267 0 4.043-0.793 5.33-2.38 1.28-1.58 1.92-3.753 1.92-6.52v0c0-2.767-0.64-4.94-1.92-6.52-1.287-1.587-3.063-2.38-5.33-2.38zM175.65 29.85v0 5.1h-4v-4.9c0-1.867-0.523-3.233-1.57-4.1-1.053-0.867-2.463-1.3-4.23-1.3v0c-1.333 0-2.517 0.167-3.55 0.5-1.033 0.333-1.917 0.717-2.65 1.15v0 8.65h-4v-8.45c0-0.7 0.143-1.277 0.43-1.73 0.28-0.447 0.77-0.887 1.47-1.32v0c0.867-0.5 2.017-0.977 3.45-1.43 1.433-0.447 3.05-0.67 4.85-0.67v0c3.033 0 5.427 0.69 7.18 2.07 1.747 1.387 2.62 3.53 2.62 6.43zM155.65 43.55v-11.35h4v12.8c-0.167 0.067-0.417 0.143-0.75 0.23-0.333 0.08-0.7 0.12-1.1 0.12v0c-0.7 0-1.233-0.143-1.6-0.43-0.367-0.28-0.55-0.737-0.55-1.37zM171.65 43.55v-11.35h4v12.8c-0.167 0.067-0.423 0.143-0.77 0.23-0.353 0.08-0.713 0.12-1.08 0.12v0c-0.733 0-1.273-0.143-1.62-0.43-0.353-0.28-0.53-0.737-0.53-1.37zM199.45 38.95v0c0 2.133-0.783 3.8-2.35 5-1.567 1.2-3.833 1.8-6.8 1.8v0c-2.533 0-4.6-0.393-6.2-1.18-1.6-0.78-2.4-1.637-2.4-2.57v0c0-0.4 0.11-0.793 0.33-1.18 0.213-0.38 0.537-0.687 0.97-0.92v0c0.9 0.633 1.95 1.217 3.15 1.75 1.2 0.533 2.567 0.8 4.1 0.8v0c3.467 0 5.2-1.167 5.2-3.5v0c0-0.967-0.29-1.76-0.87-2.38-0.587-0.613-1.447-1.053-2.58-1.32v0l-4.15-1.1c-2.033-0.5-3.517-1.277-4.45-2.33-0.933-1.047-1.4-2.353-1.4-3.92v0c0-1.767 0.717-3.3 2.15-4.6 1.433-1.3 3.617-1.95 6.55-1.95v0c1.567 0 2.933 0.157 4.1 0.47 1.167 0.32 2.077 0.737 2.73 1.25 0.647 0.52 0.97 1.08 0.97 1.68v0c0 0.433-0.107 0.817-0.32 1.15-0.22 0.333-0.513 0.583-0.88 0.75v0c-0.4-0.267-0.907-0.56-1.52-0.88-0.62-0.313-1.347-0.58-2.18-0.8-0.833-0.213-1.75-0.32-2.75-0.32v0c-1.467 0-2.65 0.283-3.55 0.85-0.9 0.567-1.35 1.367-1.35 2.4v0c0 0.733 0.257 1.373 0.77 1.92 0.52 0.553 1.347 0.963 2.48 1.23v0l3.45 0.85c2.267 0.533 3.967 1.373 5.1 2.52 1.133 1.153 1.7 2.663 1.7 4.53z" fill="#ffffff" fill-rule="nonzero" stroke="none" stroke-width="1" stroke-linecap="butt" stroke-linejoin="miter" stroke-miterlimit="10" stroke-dasharray="" stroke-dashoffset="0" font-family="none" font-weight="none" font-size="none" text-anchor="none" style="mix-blend-mode: normal" data-fill-palette-color="quaternary" opacity="1"></path></g></svg></g></svg></g></svg></g></svg></g></svg></g></svg></g></svg></g><defs></defs></svg><rect width="512" height="320" fill="none" stroke="none" visibility="hidden"></rect></g></svg></g></svg>